<?xml version="1.0" encoding="UTF-8"?>
<svg version="1.1" xmlns="http://www.w3.org/2000/svg" width="512" height="512">
<path d="M0 0 C1.17591831 -0.01043099 2.35183662 -0.02086198 3.56338882 -0.03160906 C4.85636761 -0.02268617 6.14934639 -0.01376328 7.48150635 -0.00457001 C8.86804739 -0.00917777 10.25458355 -0.01552984 11.64110947 -0.02347898 C15.45541089 -0.04021299 19.2693132 -0.03190773 23.08361626 -0.01953411 C27.19548148 -0.01050247 31.30727695 -0.02444394 35.41912842 -0.0354538 C43.4758844 -0.05326384 51.53249155 -0.04938801 59.58925343 -0.03780323 C66.13566627 -0.02877894 72.68203732 -0.02754055 79.22845459 -0.0318985 C80.15927912 -0.03251143 81.09010364 -0.03312436 82.04913497 -0.03375587 C83.93993792 -0.03503474 85.83074086 -0.03633159 87.72154379 -0.03764623 C105.46213446 -0.04905931 123.20264253 -0.03592693 140.94321966 -0.01444477 C156.17379671 0.00342687 171.40425182 0.00032297 186.63482666 -0.01811981 C204.31083815 -0.03951369 221.9867772 -0.04796061 239.66279984 -0.03567076 C241.54674529 -0.03439653 243.43069075 -0.03313904 245.31463623 -0.0318985 C246.24163448 -0.0312814 247.16863273 -0.03066429 248.12372184 -0.03002849 C254.66418426 -0.02657114 261.20460083 -0.03241223 267.74505615 -0.04181671 C275.71297688 -0.05302162 283.68073994 -0.05002852 291.64864254 -0.02869374 C295.71598936 -0.0181629 299.78307307 -0.01409586 303.85041809 -0.02729034 C307.57123617 -0.03917837 311.29154637 -0.03271183 315.01231813 -0.01138014 C317.00144653 -0.00476986 318.99060998 -0.01788227 320.979702 -0.03160906 C322.15562031 -0.02117807 323.33153862 -0.01074708 324.54309082 0 C325.5600919 0.00064941 326.57709297 0.00129882 327.62491226 0.00196791 C331.02112864 0.64537084 332.17759912 1.79673426 334.27154541 4.50336456 C335.07754802 7.41449838 335.66088523 10.10899954 336.13092041 13.07413483 C336.28090988 13.93751378 336.43089935 14.80089274 336.58543396 15.69043469 C337.07943362 18.55652626 337.55046012 21.42590551 338.02154541 24.29584503 C338.36722518 26.32904306 338.71433783 28.36199795 339.06280518 30.39472008 C339.78825417 34.64382065 340.50396995 38.89439199 341.21148682 43.14651489 C342.2088807 49.14067419 343.22752206 55.13103455 344.25201416 61.1206131 C346.10446735 71.97217199 347.92915133 82.82829384 349.74635696 93.68580484 C350.2814368 96.88277567 350.81696002 100.07967199 351.35256958 103.27655411 C353.03890582 113.34339697 354.72316564 123.41058421 356.40458965 133.47824872 C358.32799701 144.99443013 360.25899849 156.50930654 362.19608116 168.02319539 C363.70994248 177.0244275 365.21695253 186.02679019 366.71882057 195.03003109 C367.60972798 200.36975643 368.50349909 205.70896288 369.40460205 211.046978 C370.2464549 216.0349985 371.07977428 221.02437109 371.90664482 226.01489639 C372.2099115 227.83625222 372.5161981 229.65710835 372.82582283 231.4773941 C376.94435298 255.7180316 376.94435298 255.7180316 373.93598938 260.72715187 C371.54288378 263.28095639 369.65585791 263.48788709 366.21621418 263.62641239 C364.95059241 263.6254906 363.68497065 263.62456881 362.3809967 263.62361908 C361.67606242 263.6244735 360.97112814 263.62532793 360.24483222 263.62620825 C357.87716473 263.62785845 355.50956772 263.62234917 353.14190674 263.61688995 C351.44690452 263.61660796 349.75190217 263.61676606 348.05690002 263.61733246 C343.44977593 263.61761995 338.84267776 263.61173104 334.2355597 263.6047585 C329.42290518 263.5985169 324.6102501 263.59792052 319.79759216 263.59673309 C310.68161634 263.59362217 301.56565248 263.58541197 292.44968194 263.5753836 C282.0725442 263.56421508 271.6954059 263.55871015 261.31826365 263.55368817 C239.96935089 263.54322918 218.6204489 263.52563433 197.27154541 263.50336456 C197.47312256 264.23337677 197.67469971 264.96338898 197.88238525 265.71552277 C198.8086761 269.08097524 199.7276452 272.44838699 200.64654541 275.81586456 C200.96365479 276.96377472 201.28076416 278.11168488 201.60748291 279.29438019 C203.51869005 286.32204812 205.11328831 293.31213842 206.27154541 300.50336456 C206.94325272 300.48695923 207.61496002 300.47055389 208.30702209 300.45365143 C225.55157006 300.05140964 239.39517488 300.94111019 253.58404541 311.87836456 C260.01462677 318.15939752 263.93096488 325.29254295 267.58404541 333.44086456 C268.02554932 334.37865753 268.46705322 335.3164505 268.92193604 336.28266144 C274.36777001 348.2835115 274.36777001 348.2835115 273.27154541 353.50336456 C270.45817543 357.16687566 268.97994199 358.38943064 264.35939026 359.13257027 C262.79169174 359.15999465 261.22336722 359.15995382 259.65557861 359.13828278 C258.78912122 359.14608273 257.92266382 359.15388268 257.02995014 359.161919 C254.12697629 359.18186066 251.22531021 359.16606601 248.32232666 359.15033722 C246.24105056 359.15711237 244.15978046 359.16601491 242.07852173 359.17688751 C236.42562056 359.19969944 230.77317519 359.19083647 225.12026596 359.17499208 C219.20754508 359.16234303 213.29486351 359.17407044 207.38214111 359.18192291 C197.45230087 359.19102234 187.5226465 359.17902374 177.59283447 359.15522003 C166.10866939 359.12800835 154.62494812 359.13682229 143.1407938 359.16435206 C133.28503142 359.18703364 123.42940274 359.19024782 113.5736227 359.17715871 C107.68530946 359.16935903 101.79720491 359.168337 95.90890503 359.18484116 C90.37329941 359.19927265 84.8382666 359.18928782 79.30272293 359.16036987 C77.26978126 359.15375207 75.23679147 359.15566853 73.20386887 359.1666832 C70.43109673 359.18032267 67.66016655 359.16324254 64.88751221 359.13828278 C64.08060597 359.14943638 63.27369974 359.16058999 62.4423418 359.17208159 C58.35036189 359.10049893 56.49797073 358.68441171 53.2593689 356.09486198 C51.27154541 353.50336456 51.27154541 353.50336456 50.85040283 351.40448761 C51.85615821 345.24468846 53.92064317 339.94523154 56.58404541 334.31586456 C56.97527588 333.45283722 57.36650635 332.58980988 57.76959229 331.70063019 C63.88767664 318.43970771 72.03711009 308.36042144 86.08404541 303.12836456 C91.28115883 301.3627278 96.07255203 300.37354589 101.57232666 300.40570831 C102.5487915 300.40893097 103.52525635 300.41215363 104.53131104 300.41547394 C106.04241455 300.4280423 106.04241455 300.4280423 107.58404541 300.44086456 C108.61078369 300.44537628 109.63752197 300.449888 110.69537354 300.45453644 C113.22082733 300.46628273 115.74614569 300.48357959 118.27154541 300.50336456 C118.37386475 299.86809845 118.47618408 299.23283234 118.581604 298.57831573 C119.89799213 290.85268487 121.81085334 283.36590029 123.89654541 275.81586456 C124.22138916 274.62541534 124.54623291 273.43496613 124.88092041 272.20844269 C125.67366694 269.30559141 126.47060729 266.40396421 127.27154541 263.50336456 C126.38971242 263.50612994 125.50787943 263.50889532 124.59932423 263.5117445 C103.15042405 263.57797411 81.70154149 263.62763044 60.25256062 263.65880108 C49.88002668 263.67427531 39.50756096 263.69537548 29.1350708 263.72968292 C20.09526547 263.75956822 11.05550953 263.77893552 2.01565617 263.78563005 C-2.77165995 263.78954377 -7.55883472 263.79875317 -12.34610558 263.82055473 C-16.85141238 263.84090612 -21.3565195 263.84720108 -25.8618679 263.84268761 C-27.51587509 263.84351341 -29.1698889 263.84948712 -30.82385635 263.86098099 C-33.08194877 263.8759043 -35.33928703 263.87231917 -37.59739685 263.86412811 C-38.86117503 263.86689349 -40.12495321 263.86965887 -41.4270277 263.87250805 C-44.99832307 263.47318967 -46.88256598 262.65773982 -49.72845459 260.50336456 C-54.27342886 251.41341602 -49.01352531 235.74678295 -47.39544678 226.20893097 C-47.03665059 224.05434326 -46.67863415 221.89962557 -46.32133484 219.74478912 C-45.3519022 213.91226623 -44.37142902 208.08164853 -43.38880444 202.25133562 C-42.35820985 196.12562577 -41.3374166 189.99828256 -40.31542969 183.8711319 C-38.48624848 172.91367968 -36.64906473 161.95758848 -34.80794385 151.00213663 C-32.70717389 138.50068871 -30.61727998 125.99744443 -28.52958298 113.49380684 C-26.63070264 102.12122866 -24.72756669 90.74936327 -22.82348728 79.37765455 C-22.21654936 75.75214689 -21.6100758 72.12656175 -21.00362396 68.50097275 C-20.04407603 62.76641477 -19.08187351 57.03230766 -18.11773872 51.29851913 C-17.7670851 49.21113978 -17.41718826 47.1236331 -17.06816673 45.03598022 C-16.13194264 39.43797622 -15.17977993 33.84317525 -14.203578 28.25199938 C-13.87569682 26.35517511 -13.55434243 24.45721508 -13.23831654 22.55837965 C-12.7531657 19.64997698 -12.24756444 16.74576613 -11.73779297 13.84159088 C-11.59536722 12.96032363 -11.45294147 12.07905637 -11.30619979 11.17108405 C-11.15852731 10.35351988 -11.01085483 9.53595571 -10.85870743 8.69361687 C-10.73658457 7.97854827 -10.61446171 7.26347968 -10.48863816 6.52674234 C-8.51104128 1.26298011 -5.33863171 0.003409 0 0 Z M6.27154541 17.50336456 C4.59966687 23.28886398 4.59966687 23.28886398 3.4019165 29.09003448 C3.2619223 29.91746658 3.1219281 30.74489868 2.97769165 31.59740448 C2.76350082 32.90243675 2.76350082 32.90243675 2.54498291 34.23383331 C2.39244049 35.14667587 2.23989807 36.05951843 2.08273315 37.00002289 C1.76317073 38.91837217 1.44560726 40.8370554 1.12994385 42.75605011 C0.64620202 45.69294937 0.15464073 48.6284646 -0.33782959 51.56391144 C-0.648191 53.43297481 -0.9581025 55.30211296 -1.26751709 57.17133331 C-1.41435944 58.04742752 -1.56120178 58.92352173 -1.7124939 59.82616425 C-1.84618378 60.64413986 -1.97987366 61.46211548 -2.11761475 62.30487823 C-2.23593658 63.02100784 -2.35425842 63.73713745 -2.47616577 64.47496796 C-2.81073952 66.82426263 -2.81073952 66.82426263 -2.72845459 70.50336456 C14.43154541 70.50336456 31.59154541 70.50336456 49.27154541 70.50336456 C50.50904541 59.05648956 50.50904541 59.05648956 51.77154541 47.37836456 C52.03258057 44.97925812 52.29361572 42.58015167 52.56256104 40.10834503 C52.7678911 38.19577441 52.97298508 36.28317841 53.17779541 34.37055206 C53.28575439 33.38643341 53.39371338 32.40231476 53.50494385 31.38837433 C53.60645752 30.43487091 53.70797119 29.48136749 53.81256104 28.49897003 C53.9013855 27.67734375 53.99020996 26.85571747 54.08172607 26.00919342 C54.29594117 23.18131312 54.27154541 20.33934677 54.27154541 17.50336456 C38.43154541 17.50336456 22.59154541 17.50336456 6.27154541 17.50336456 Z M71.27154541 18.50336456 C71.03134152 20.1258076 70.85249201 21.75739437 70.69903564 23.39032745 C70.59900742 24.43133102 70.49897919 25.47233459 70.3959198 26.54488373 C70.29171219 27.67715897 70.18750458 28.8094342 70.08013916 29.97602081 C69.97057388 31.1288002 69.86100861 32.28157959 69.74812317 33.46929169 C69.39757815 37.1677678 69.05325088 40.86679357 68.70904541 44.56586456 C68.4731252 47.06655412 68.23680245 49.56720574 68.00006104 52.06781769 C67.41920972 58.21256661 66.84346837 64.35777857 66.27154541 70.50336456 C73.65882643 70.52863149 81.04609639 70.54619617 88.43341064 70.5582962 C90.94871436 70.5633382 93.46401513 70.57017159 95.97930908 70.57880402 C99.58584316 70.5908755 103.19233864 70.59659405 106.79888916 70.60102081 C107.9311644 70.6061821 109.06343964 70.61134338 110.23002625 70.61666107 C111.27102982 70.6167366 112.31203339 70.61681213 113.38458252 70.61688995 C114.30613632 70.61911057 115.22769012 70.62133118 116.1771698 70.62361908 C118.25962903 70.73708437 118.25962903 70.73708437 119.27154541 69.50336456 C119.4312313 67.54479155 119.52318237 65.58065008 119.58795166 63.61664581 C119.65079346 61.74009308 119.65079346 61.74009308 119.71490479 59.82563019 C119.74427124 58.83236725 119.74427124 58.83236725 119.77423096 57.81903839 C119.83163577 55.8965629 119.89807269 53.97436354 119.96490479 52.05219269 C120.33077147 40.53610329 120.31697541 29.02431194 120.27154541 17.50336456 C113.45392647 17.47809566 106.63631952 17.46053212 99.81866455 17.44843292 C97.4973709 17.44339123 95.17608044 17.43655805 92.85479736 17.42792511 C89.52625746 17.41585232 86.19775939 17.41013478 82.86920166 17.40570831 C81.82442154 17.40054703 80.77964142 17.39538574 79.70320129 17.39006805 C78.26182045 17.38995476 78.26182045 17.38995476 76.7913208 17.38983917 C75.94082657 17.38761856 75.09033234 17.38539795 74.21406555 17.38311005 C72.26565996 17.28856172 72.26565996 17.28856172 71.27154541 18.50336456 Z M138.27154541 17.50336456 C137.47217481 21.50021756 137.08759642 24.88851928 136.95513916 28.92133331 C136.91324463 30.17752472 136.8713501 31.43371613 136.82818604 32.72797394 C136.78886963 34.03572784 136.74955322 35.34348175 136.70904541 36.69086456 C136.66586182 37.94834503 136.62267822 39.2058255 136.57818604 40.50141144 C136.25871435 50.51659524 136.27154541 60.47029241 136.27154541 70.50336456 C153.43154541 70.50336456 170.59154541 70.50336456 188.27154541 70.50336456 C188.27154541 59.20644602 188.22145669 47.97204966 187.83404541 36.69086456 C187.794729 35.38311066 187.7554126 34.07535675 187.71490479 32.72797394 C187.67301025 31.47178253 187.63111572 30.21559113 187.58795166 28.92133331 C187.53296509 27.24720367 187.53296509 27.24720367 187.47686768 25.53925323 C187.31365834 22.15275398 187.31365834 22.15275398 186.27154541 17.50336456 C170.43154541 17.50336456 154.59154541 17.50336456 138.27154541 17.50336456 Z M204.27154541 17.50336456 C204.22114873 30.28385301 204.26491926 43.04226632 204.70904541 55.81586456 C204.74895556 57.15244725 204.78866877 58.48903583 204.82818604 59.82563019 C204.87008057 61.07666534 204.9119751 62.3277005 204.95513916 63.61664581 C204.99179687 64.72822052 205.02845459 65.83979523 205.06622314 66.98505402 C204.99292853 69.44051676 204.99292853 69.44051676 206.27154541 70.50336456 C207.89829319 70.5967689 209.52908592 70.62081627 211.1585083 70.61688995 C212.72001366 70.61677666 212.72001366 70.61677666 214.31306458 70.61666107 C216.01147743 70.60891914 216.01147743 70.60891914 217.74420166 70.60102081 C219.47337074 70.59889839 219.47337074 70.59889839 221.23747253 70.59673309 C224.93635605 70.59111462 228.63518005 70.57855898 232.33404541 70.56586456 C234.83469558 70.56085194 237.3353467 70.55628863 239.83599854 70.55219269 C245.98120129 70.54113918 252.1263691 70.52438308 258.27154541 70.50336456 C257.58401144 63.11548288 256.88957757 55.7282736 256.19024658 48.34149933 C255.9529623 45.82635096 255.71728263 43.31105068 255.48321533 40.79560089 C255.14730668 37.18866637 254.80570942 33.58231009 254.46295166 29.97602081 C254.35874405 28.84374557 254.25453644 27.71147034 254.14717102 26.54488373 C254.04714279 25.50388016 253.94711456 24.46287659 253.84405518 23.39032745 C253.7141494 22.00799675 253.7141494 22.00799675 253.58161926 20.59774017 C253.48654073 18.51971873 253.48654073 18.51971873 252.27154541 17.50336456 C250.76735802 17.41024567 249.25883185 17.38590429 247.75177002 17.38983917 C246.79084946 17.3899147 245.82992889 17.38999023 244.83988953 17.39006805 C243.27271935 17.39780998 243.27271935 17.39780998 241.67388916 17.40570831 C240.60989395 17.40712326 239.54589874 17.40853821 238.44966125 17.40999603 C235.03609458 17.41561393 231.62259241 17.42816945 228.20904541 17.44086456 C225.90110365 17.44587726 223.59316086 17.45044056 221.28521729 17.45453644 C215.61397115 17.46558917 209.94276288 17.4823447 204.27154541 17.50336456 Z M270.27154541 17.50336456 C270.88928994 29.39211068 272.01127872 41.17476753 273.33404541 53.00336456 C273.97342041 58.77836456 274.61279541 64.55336456 275.27154541 70.50336456 C292.43154541 70.50336456 309.59154541 70.50336456 327.27154541 70.50336456 C325.71194489 57.76896295 325.71194489 57.76896295 323.79888916 45.10102081 C323.67091446 44.32697403 323.54293976 43.55292725 323.41108704 42.7554245 C323.14636976 41.16015111 322.8800658 39.56514014 322.61212158 37.97040558 C322.20081605 35.5167725 321.79750404 33.06190412 321.39459229 30.60688019 C321.13399509 29.04234862 320.87294553 27.47789231 320.61138916 25.91352081 C320.43167824 24.81536797 320.43167824 24.81536797 320.24833679 23.69503021 C319.9107209 20.30955889 319.9107209 20.30955889 318.27154541 17.50336456 C316.76735802 17.41024567 315.25883185 17.38590429 313.75177002 17.38983917 C312.79084946 17.3899147 311.82992889 17.38999023 310.83988953 17.39006805 C309.27271935 17.39780998 309.27271935 17.39780998 307.67388916 17.40570831 C306.60989395 17.40712326 305.54589874 17.40853821 304.44966125 17.40999603 C301.03609458 17.41561393 297.62259241 17.42816945 294.20904541 17.44086456 C291.90110365 17.44587726 289.59316086 17.45044056 287.28521729 17.45453644 C281.61397115 17.46558917 275.94276288 17.4823447 270.27154541 17.50336456 Z M-5.72845459 87.50336456 C-8.85498827 103.70788686 -8.85498827 103.70788686 -11.65032959 119.96039581 C-11.78390869 120.78454987 -11.91748779 121.60870392 -12.05511475 122.45783234 C-12.53275689 125.4099945 -13.00536129 128.36297002 -13.47845459 131.31586456 C-14.55095459 137.97773956 -15.62345459 144.63961456 -16.72845459 151.50336456 C2.41154541 151.50336456 21.55154541 151.50336456 41.27154541 151.50336456 C42.75654541 137.33398956 42.75654541 137.33398956 44.27154541 122.87836456 C44.74140869 118.41828888 44.74140869 118.41828888 45.22076416 113.86811066 C45.46710264 111.50436662 45.71321191 109.14059867 45.95904541 106.77680206 C46.08859619 105.55517365 46.21814697 104.33354523 46.35162354 103.07489777 C46.47343994 101.89806427 46.59525635 100.72123077 46.72076416 99.50873566 C46.82735352 98.49169556 46.93394287 97.47465546 47.04376221 96.42679596 C47.27489766 93.4603409 47.27154541 90.47881062 47.27154541 87.50336456 C29.78154541 87.50336456 12.29154541 87.50336456 -5.72845459 87.50336456 Z M64.27154541 88.50336456 C64.00057752 90.35469929 63.79150424 92.21513099 63.60723877 94.07709503 C63.48718979 95.26858154 63.36714081 96.46006805 63.24345398 97.68766022 C63.11737259 98.98551453 62.9912912 100.28336884 62.86138916 101.62055206 C62.72864282 102.95718518 62.59554605 104.29378353 62.46211243 105.63034821 C62.18290733 108.4362303 61.90662784 111.24237948 61.63262939 114.04877472 C61.28136046 117.64615853 60.92496761 121.24300982 60.56664181 124.83969688 C60.29166737 127.60191761 60.01837553 130.36430252 59.74569893 133.12675095 C59.55108916 135.09826475 59.35589308 137.06972066 59.16069031 139.04117584 C59.04379349 140.23896667 58.92689667 141.43675751 58.80645752 142.67084503 C58.70288437 143.72706055 58.59931122 144.78327606 58.49259949 145.87149811 C58.22969707 148.56142129 58.22969707 148.56142129 58.27154541 151.50336456 C77.41154541 151.50336456 96.55154541 151.50336456 116.27154541 151.50336456 C116.60154541 143.17086456 116.93154541 134.83836456 117.27154541 126.25336456 C117.37595947 123.64784698 117.48037354 121.04232941 117.58795166 118.35785675 C117.67016828 116.25532493 117.75221076 114.15278629 117.83404541 112.05023956 C117.8988208 110.45816681 117.8988208 110.45816681 117.96490479 108.83393097 C118.23888934 101.72011774 118.32168226 94.62220021 118.27154541 87.50336456 C110.74184889 87.47809809 103.21216321 87.46053315 95.68243408 87.44843292 C93.11862784 87.44339086 90.5548245 87.43655742 87.99102783 87.42792511 C84.3149952 87.41585392 80.63900043 87.41013514 76.96295166 87.40570831 C75.23172813 87.39796638 75.23172813 87.39796638 73.4655304 87.39006805 C72.40450607 87.38999252 71.34348175 87.38991699 70.25030518 87.38983917 C69.31098648 87.38761856 68.37166779 87.38539795 67.40388489 87.38311005 C65.287915 87.26493812 65.287915 87.26493812 64.27154541 88.50336456 Z M135.27154541 87.50336456 C134.94154541 96.39273956 134.61154541 105.28211456 134.27154541 114.44086456 C134.16713135 117.23031525 134.06271729 120.01976593 133.95513916 122.89374542 C133.87297708 125.12689491 133.79093771 127.36004892 133.70904541 129.59320831 C133.66586182 130.73471344 133.62267822 131.87621857 133.57818604 133.05231476 C133.53758057 134.1678775 133.4969751 135.28344025 133.45513916 136.43280792 C133.41960937 137.38989151 133.38407959 138.3469751 133.34747314 139.33306122 C133.25034084 143.38874497 133.27154541 147.44651783 133.27154541 151.50336456 C152.41154541 151.50336456 171.55154541 151.50336456 191.27154541 151.50336456 C191.12717041 145.58398956 190.98279541 139.66461456 190.83404541 133.56586456 C190.79094238 131.75739044 190.74783936 129.94891632 190.70343018 128.08563995 C190.3642766 114.54746089 189.81300919 101.03995918 189.27154541 87.50336456 C171.45154541 87.50336456 153.63154541 87.50336456 135.27154541 87.50336456 Z M206.27154541 87.50336456 C206.39234843 93.08205575 206.51666629 98.66065526 206.64385986 104.23920441 C206.68642776 106.12590304 206.72813289 108.01262139 206.76885986 109.89936066 C206.82851851 112.65544286 206.89158098 115.4114323 206.95513916 118.16742706 C206.97185165 118.97257751 206.98856415 119.77772797 207.00578308 120.60727692 C207.25081532 130.91718926 207.80292787 141.19377865 208.27154541 151.50336456 C227.41154541 151.50336456 246.55154541 151.50336456 266.27154541 151.50336456 C265.34342041 141.47961456 265.34342041 141.47961456 264.39654541 131.25336456 C264.20592529 129.1905423 264.01530518 127.12772003 263.81890869 125.002388 C263.39757985 120.45203647 262.97043359 115.90224991 262.54022217 111.3527298 C262.35841549 109.4246374 262.17803591 107.49640999 261.9989624 105.56806183 C261.73745576 102.75960052 261.47008859 99.95175564 261.20123291 97.14398956 C261.12244904 96.28642059 261.04366516 95.42885162 260.9624939 94.54529572 C260.92369734 90.70618471 260.92369734 90.70618471 259.27154541 87.50336456 C257.61416098 87.40989541 255.95279897 87.38591479 254.29278564 87.38983917 C252.70124916 87.38995247 252.70124916 87.38995247 251.07756042 87.39006805 C249.92341141 87.39522934 248.76926239 87.40039062 247.58013916 87.40570831 C245.81767601 87.40783073 245.81767601 87.40783073 244.01960754 87.40999603 C240.24939477 87.41561464 236.47924037 87.4281703 232.70904541 87.44086456 C230.16021814 87.44587716 227.61138994 87.45044049 225.06256104 87.45453644 C218.79886908 87.46559012 212.53521142 87.48234635 206.27154541 87.50336456 Z M277.27154541 87.50336456 C277.85942938 96.90950812 278.45527739 106.21300539 279.46295166 115.56586456 C279.60887756 116.95708527 279.60887756 116.95708527 279.75775146 118.37641144 C280.11283969 121.75245119 280.47375214 125.12787633 280.83404541 128.50336456 C281.63842041 136.09336456 282.44279541 143.68336456 283.27154541 151.50336456 C302.41154541 151.50336456 321.55154541 151.50336456 341.27154541 151.50336456 C339.98799011 143.60868417 338.70397894 135.71410385 337.41536713 127.82025146 C336.81543234 124.144275 336.21637815 120.46815997 335.6194458 116.79169464 C335.044546 113.25114002 334.46723404 109.71098646 333.88824272 106.17109871 C333.66769778 104.82004379 333.4480245 103.46884628 333.2292347 102.11750603 C332.92280628 100.22581285 332.61299941 98.33466786 332.30303955 96.44355011 C332.12761124 95.3665535 331.95218292 94.28955688 331.7714386 93.17992401 C331.31829 90.41579577 331.31829 90.41579577 330.27154541 87.50336456 C312.78154541 87.50336456 295.29154541 87.50336456 277.27154541 87.50336456 Z M-19.72845459 168.50336456 C-21.86505909 181.17753575 -21.86505909 181.17753575 -23.99407959 193.85297394 C-24.86087387 199.02386359 -25.72854985 204.19459432 -26.60150146 209.36444855 C-27.30532132 213.53299773 -28.0051653 217.70219672 -28.70227051 221.87187386 C-28.96877883 223.46169324 -29.23671314 225.05127427 -29.50610352 226.64060783 C-29.88349017 228.86857641 -30.25577458 231.09734244 -30.62689209 233.32636261 C-30.94666016 235.22831642 -30.94666016 235.22831642 -31.27288818 237.16869354 C-31.84125276 240.76808758 -31.84125276 240.76808758 -31.72845459 245.50336456 C-10.93845459 245.50336456 9.85154541 245.50336456 31.27154541 245.50336456 C32.67849383 242.68946773 32.71502839 240.06295339 33.02764893 236.92987823 C33.13028046 235.91736244 33.13028046 235.91736244 33.23498535 234.88439178 C33.4607124 232.64707807 33.68069508 230.40924076 33.90045166 228.17133331 C34.05568955 226.61672518 34.21120582 225.06214482 34.36698914 223.50759125 C34.69304625 220.24527464 35.01638492 216.98270356 35.33770752 213.7199173 C35.74916142 209.54316288 36.16626956 205.36699772 36.58529758 201.19099712 C36.90720015 197.97839381 37.226605 194.76554609 37.54520988 191.55261421 C37.69806393 190.01321053 37.85156821 188.47387127 38.00573921 186.93459892 C38.22122477 184.77831153 38.43347245 182.62172927 38.64483643 180.46503448 C38.76617447 179.23862747 38.88751251 178.01222046 39.01252747 176.7486496 C39.23130198 174.00758219 39.27154541 171.25314871 39.27154541 168.50336456 C19.80154541 168.50336456 0.33154541 168.50336456 -19.72845459 168.50336456 Z M56.27154541 168.50336456 C55.02415243 180.77354603 55.02415243 180.77354603 53.78326416 193.04438019 C53.27827681 198.05248046 52.77254395 203.06049727 52.26226807 208.06806183 C51.85072116 212.10723027 51.44260432 216.14673215 51.03681946 220.18648338 C50.88174945 221.72429339 50.7254636 223.26198132 50.56791687 224.79953957 C50.34672266 226.96034658 50.12993546 229.12155527 49.91412354 231.28290558 C49.78976929 232.51090378 49.66541504 233.73890198 49.53729248 235.00411224 C49.27218583 238.49493174 49.27154541 242.00249291 49.27154541 245.50336456 C70.39154541 245.50336456 91.51154541 245.50336456 113.27154541 245.50336456 C113.60154541 236.69648956 113.93154541 227.88961456 114.27154541 218.81586456 C114.37595947 216.0834549 114.48037354 213.35104523 114.58795166 210.53583527 C114.67028736 208.29194993 114.75233611 206.04805404 114.83404541 203.80414581 C114.8988208 202.15158783 114.8988208 202.15158783 114.96490479 200.46564484 C115.34693799 189.79259205 115.27154541 179.20921735 115.27154541 168.50336456 C95.80154541 168.50336456 76.33154541 168.50336456 56.27154541 168.50336456 Z M133.27154541 168.50336456 C132.41116291 171.94489457 132.09155667 174.64533455 131.97442627 178.15131378 C131.9344603 179.28704834 131.89449432 180.4227829 131.85331726 181.59293365 C131.81473099 182.81892273 131.77614471 184.0449118 131.73638916 185.30805206 C131.69341202 186.57875549 131.65043488 187.84945892 131.6061554 189.15866852 C131.51592259 191.85360104 131.42733882 194.54852545 131.34161377 197.24359894 C131.23294516 200.65684053 131.11853893 204.06985738 131.00203609 207.48283958 C130.89006162 210.77865854 130.78206706 214.07460664 130.67388916 217.37055206 C130.63327866 218.57629883 130.59266815 219.78204559 130.55082703 221.02433014 C130.29307781 229.19678889 130.27154541 237.31763798 130.27154541 245.50336456 C151.39154541 245.50336456 172.51154541 245.50336456 194.27154541 245.50336456 C194.27154541 236.10502325 194.18534831 226.75710873 193.86920166 217.37055206 C193.82718124 216.09028137 193.78516083 214.81001068 193.74186707 213.49094391 C193.65312794 210.8137195 193.56336934 208.13655228 193.47198486 205.45941925 C193.35536063 202.0345715 193.24492541 198.60955344 193.13597965 195.18445396 C193.03012496 191.89218873 192.91804498 188.60013555 192.80670166 185.30805206 C192.76811539 184.08206299 192.72952911 182.85607391 192.68977356 181.59293365 C192.6298246 179.88933182 192.6298246 179.88933182 192.56866455 178.15131378 C192.53535538 177.15429443 192.5020462 176.15727509 192.46772766 175.13004303 C192.32683623 172.24398066 192.32683623 172.24398066 191.27154541 168.50336456 C172.13154541 168.50336456 152.99154541 168.50336456 133.27154541 168.50336456 Z M209.27154541 168.50336456 C209.25940573 186.16735137 209.25940573 186.16735137 209.70904541 203.80414581 C209.74836182 204.88385651 209.78767822 205.9635672 209.82818604 207.0759964 C209.97178351 210.98944174 210.12200872 214.90264166 210.27154541 218.81586456 C210.60154541 227.62273956 210.93154541 236.42961456 211.27154541 245.50336456 C232.39154541 245.50336456 253.51154541 245.50336456 275.27154541 245.50336456 C274.64509043 234.85362983 273.95240698 224.31439659 272.86138916 213.71820831 C272.68597595 211.97465057 272.68597595 211.97465057 272.50701904 210.19586945 C272.07821084 205.94381116 271.64329512 201.69237057 271.20904541 197.44086456 C269.75498291 183.11680206 269.75498291 183.11680206 268.27154541 168.50336456 C248.80154541 168.50336456 229.33154541 168.50336456 209.27154541 168.50336456 Z M285.27154541 168.50336456 C286.77155138 187.67123805 286.77155138 187.67123805 288.52545166 206.81195831 C288.63123032 207.88164352 288.73700897 208.95132874 288.84599304 210.05342865 C289.06399885 212.24967306 289.2832206 214.44579715 289.50372314 216.6417923 C289.8418713 220.01902517 290.17301428 223.39690417 290.50396729 226.77484894 C290.71904624 228.93309354 290.93452468 231.09129839 291.15045166 233.24945831 C291.24838516 234.25439835 291.34631866 235.25933838 291.44721985 236.29473114 C291.54079269 237.21492538 291.63436554 238.13511963 291.73077393 239.08319855 C291.81134537 239.89159683 291.89191681 240.69999512 291.97492981 241.53289032 C292.17849452 243.57484038 292.17849452 243.57484038 293.27154541 245.50336456 C314.06154541 245.50336456 334.85154541 245.50336456 356.27154541 245.50336456 C355.44164866 236.28830474 355.44164866 236.28830474 354.14825439 227.19599152 C353.98710144 226.22797859 353.98710144 226.22797859 353.82269287 225.24040985 C353.47485843 223.15682175 353.12133091 221.07424682 352.76763916 218.99164581 C352.52208861 217.52769097 352.27690156 216.06367512 352.03205872 214.59960175 C351.39288046 210.78344138 350.74883322 206.96811905 350.10369873 203.15296173 C349.32732433 198.55535083 348.55712456 193.95670185 347.78586578 189.35823059 C346.61910273 182.40581073 345.44460184 175.45473849 344.27154541 168.50336456 C324.80154541 168.50336456 305.33154541 168.50336456 285.27154541 168.50336456 Z M145.27154541 263.50336456 C143.98635552 268.28967691 142.70344535 273.07648038 141.42633057 277.86493683 C140.99114632 279.49387592 140.55463085 281.12245998 140.11676025 282.75067902 C139.48776915 285.09049741 138.86356948 287.43154898 138.24029541 289.77289581 C138.0434314 290.50112045 137.84656738 291.22934509 137.64373779 291.97963715 C136.86776751 294.91010461 136.27154541 297.4571591 136.27154541 300.50336456 C153.43154541 300.50336456 170.59154541 300.50336456 188.27154541 300.50336456 C186.66331722 291.52120304 186.66331722 291.52120304 184.54498291 282.74164581 C184.26573975 281.71337677 183.98649658 280.68510773 183.6987915 279.62567902 C183.35155029 278.36844025 183.00430908 277.11120148 182.64654541 275.81586456 C181.53279541 271.75273956 180.41904541 267.68961456 179.27154541 263.50336456 C168.05154541 263.50336456 156.83154541 263.50336456 145.27154541 263.50336456 Z M79.27154541 329.50336456 C76.19941433 333.62879773 74.95043427 336.46669799 73.27154541 341.50336456 C132.01154541 341.50336456 190.75154541 341.50336456 251.27154541 341.50336456 C246.69317251 330.05743232 242.9172539 324.49692521 231.86138916 319.39008331 C225.2075641 317.11192602 218.4820047 317.35525156 211.53399658 317.35810089 C210.35764145 317.35474228 209.18128632 317.35138367 207.96928406 317.34792328 C204.75425144 317.34006884 201.53925766 317.33674673 198.3242166 317.33610749 C196.31164956 317.3353948 194.2990892 317.33325632 192.28652382 317.33061028 C185.25410154 317.32136886 178.22169817 317.31727383 171.18927002 317.31806183 C164.65231692 317.31866212 158.11544647 317.30811677 151.57851428 317.29231817 C145.95111906 317.2792064 140.32375074 317.27387946 134.69634038 317.27451724 C131.34205698 317.27477118 127.9879054 317.27104627 124.63362694 317.26133919 C120.88810797 317.25151487 117.14280039 317.25442719 113.39727783 317.26044464 C112.29827148 317.25482513 111.19926514 317.24920563 110.06695557 317.24341583 C97.40123518 317.29498328 87.87306276 319.70719203 79.27154541 329.50336456 Z " fill="#000000" transform="translate(93.72845458984375,76.49663543701172)"/>
</svg>
